<?xml version="1.0" encoding="utf-8"?>
<!-- Generator: Adobe Illustrator 21.1.0, SVG Export Plug-In . SVG Version: 6.00 Build 0)  -->
<svg version="1.1" id="Layer_1" xmlns="http://www.w3.org/2000/svg" xmlns:xlink="http://www.w3.org/1999/xlink" x="0px" y="0px"
	 viewBox="0 0 376.6 50" style="enable-background:new 0 0 376.6 50;" xml:space="preserve">
<style type="text/css">
	.st0{fill:#F4F4F4;}
	.st1{clip-path:url(#SVGID_2_);}
	.st2{stroke:#231F20;stroke-width:0.25;stroke-miterlimit:10;}
	.st3{clip-path:url(#SVGID_4_);}
	.st4{stroke:#231F20;stroke-width:0.4889;stroke-miterlimit:10;}
	.st5{fill:#231F20;}
	.st6{fill:#EF5048;}
	.st7{fill:#4493D0;}
	.st8{fill:#A465A8;}
	.st9{fill:#F9A11B;}
	.st10{fill:#60BA46;}
	.st11{fill:#FCCF0A;}
	.st12{enable-background:new    ;}
	.st13{clip-path:url(#SVGID_30_);enable-background:new    ;}
	.st14{fill:#DCDCDC;}
	.st15{fill:#D7D7D7;}
	.st16{fill:#D2D2D2;}
	.st17{fill:#CDCDCD;}
	.st18{fill:#C8C8C8;}
	.st19{fill:#C3C3C3;}
	.st20{fill:#BEBEBE;}
	.st21{fill:#B9B9B9;}
	.st22{fill:#B5B5B5;}
	.st23{fill:#B0B0B0;}
	.st24{fill:#ABABAB;}
	.st25{fill:#A6A6A6;}
	.st26{fill:#A1A1A1;}
	.st27{fill:#9C9C9C;}
	.st28{fill:#979797;}
	.st29{fill:#929292;}
	.st30{fill:#8E8E8E;}
	.st31{fill:#898989;}
	.st32{clip-path:url(#SVGID_32_);enable-background:new    ;}
	.st33{fill:#848484;}
	.st34{fill:#7F7F7F;}
	.st35{clip-path:url(#SVGID_34_);enable-background:new    ;}
	.st36{clip-path:url(#SVGID_36_);enable-background:new    ;}
	.st37{fill:#E0E0E0;}
	.st38{clip-path:url(#SVGID_38_);enable-background:new    ;}
	.st39{clip-path:url(#SVGID_40_);enable-background:new    ;}
	.st40{clip-path:url(#SVGID_42_);enable-background:new    ;}
	.st41{clip-path:url(#SVGID_44_);enable-background:new    ;}
	.st42{clip-path:url(#SVGID_46_);enable-background:new    ;}
	.st43{fill:#EFEFEF;}
	.st44{fill:#EAEAEA;}
	.st45{fill:#E5E5E5;}
	.st46{clip-path:url(#SVGID_48_);enable-background:new    ;}
	.st47{clip-path:url(#SVGID_50_);enable-background:new    ;}
	.st48{fill:#DEDEDE;}
	.st49{clip-path:url(#SVGID_98_);enable-background:new    ;}
	.st50{clip-path:url(#SVGID_100_);enable-background:new    ;}
	.st51{clip-path:url(#SVGID_102_);enable-background:new    ;}
	.st52{clip-path:url(#SVGID_104_);enable-background:new    ;}
	.st53{clip-path:url(#SVGID_106_);enable-background:new    ;}
	.st54{clip-path:url(#SVGID_108_);enable-background:new    ;}
	.st55{clip-path:url(#SVGID_110_);enable-background:new    ;}
	.st56{clip-path:url(#SVGID_112_);enable-background:new    ;}
	.st57{clip-path:url(#SVGID_114_);enable-background:new    ;}
	.st58{clip-path:url(#SVGID_116_);enable-background:new    ;}
	.st59{clip-path:url(#SVGID_118_);enable-background:new    ;}
	.st60{clip-path:url(#SVGID_166_);enable-background:new    ;}
	.st61{clip-path:url(#SVGID_168_);enable-background:new    ;}
	.st62{clip-path:url(#SVGID_170_);enable-background:new    ;}
	.st63{clip-path:url(#SVGID_172_);enable-background:new    ;}
	.st64{clip-path:url(#SVGID_174_);enable-background:new    ;}
	.st65{clip-path:url(#SVGID_176_);enable-background:new    ;}
	.st66{clip-path:url(#SVGID_178_);enable-background:new    ;}
	.st67{clip-path:url(#SVGID_180_);enable-background:new    ;}
	.st68{clip-path:url(#SVGID_182_);enable-background:new    ;}
	.st69{clip-path:url(#SVGID_184_);enable-background:new    ;}
	.st70{clip-path:url(#SVGID_186_);enable-background:new    ;}
	.st71{clip-path:url(#SVGID_210_);}
	.st72{clip-path:url(#SVGID_236_);enable-background:new    ;}
	.st73{clip-path:url(#SVGID_238_);enable-background:new    ;}
	.st74{clip-path:url(#SVGID_240_);enable-background:new    ;}
	.st75{clip-path:url(#SVGID_242_);enable-background:new    ;}
	.st76{clip-path:url(#SVGID_244_);enable-background:new    ;}
	.st77{clip-path:url(#SVGID_246_);enable-background:new    ;}
	.st78{clip-path:url(#SVGID_248_);enable-background:new    ;}
	.st79{clip-path:url(#SVGID_250_);enable-background:new    ;}
	.st80{clip-path:url(#SVGID_252_);enable-background:new    ;}
	.st81{clip-path:url(#SVGID_254_);enable-background:new    ;}
	.st82{clip-path:url(#SVGID_256_);enable-background:new    ;}
	.st83{clip-path:url(#SVGID_304_);enable-background:new    ;}
	.st84{clip-path:url(#SVGID_306_);enable-background:new    ;}
	.st85{clip-path:url(#SVGID_308_);enable-background:new    ;}
	.st86{clip-path:url(#SVGID_310_);enable-background:new    ;}
	.st87{clip-path:url(#SVGID_312_);enable-background:new    ;}
	.st88{clip-path:url(#SVGID_314_);enable-background:new    ;}
	.st89{clip-path:url(#SVGID_316_);enable-background:new    ;}
	.st90{clip-path:url(#SVGID_318_);enable-background:new    ;}
	.st91{clip-path:url(#SVGID_320_);enable-background:new    ;}
	.st92{clip-path:url(#SVGID_322_);enable-background:new    ;}
	.st93{clip-path:url(#SVGID_324_);enable-background:new    ;}
	.st94{fill:#F4F4F4;stroke:#000000;stroke-width:10;stroke-miterlimit:10;}
	.st95{clip-path:url(#SVGID_372_);enable-background:new    ;}
	.st96{clip-path:url(#SVGID_374_);enable-background:new    ;}
	.st97{clip-path:url(#SVGID_376_);enable-background:new    ;}
	.st98{clip-path:url(#SVGID_378_);enable-background:new    ;}
	.st99{clip-path:url(#SVGID_380_);enable-background:new    ;}
	.st100{clip-path:url(#SVGID_382_);enable-background:new    ;}
	.st101{clip-path:url(#SVGID_384_);enable-background:new    ;}
	.st102{clip-path:url(#SVGID_386_);enable-background:new    ;}
	.st103{clip-path:url(#SVGID_388_);enable-background:new    ;}
	.st104{clip-path:url(#SVGID_390_);enable-background:new    ;}
	.st105{clip-path:url(#SVGID_392_);enable-background:new    ;}
	.st106{clip-path:url(#SVGID_442_);enable-background:new    ;}
	.st107{clip-path:url(#SVGID_444_);enable-background:new    ;}
	.st108{clip-path:url(#SVGID_446_);enable-background:new    ;}
	.st109{clip-path:url(#SVGID_448_);enable-background:new    ;}
	.st110{clip-path:url(#SVGID_450_);enable-background:new    ;}
	.st111{clip-path:url(#SVGID_452_);enable-background:new    ;}
	.st112{clip-path:url(#SVGID_454_);enable-background:new    ;}
	.st113{clip-path:url(#SVGID_456_);enable-background:new    ;}
	.st114{clip-path:url(#SVGID_458_);enable-background:new    ;}
	.st115{clip-path:url(#SVGID_460_);enable-background:new    ;}
	.st116{clip-path:url(#SVGID_462_);enable-background:new    ;}
	.st117{clip-path:url(#SVGID_524_);enable-background:new    ;}
	.st118{clip-path:url(#SVGID_526_);enable-background:new    ;}
	.st119{clip-path:url(#SVGID_528_);enable-background:new    ;}
	.st120{clip-path:url(#SVGID_530_);enable-background:new    ;}
	.st121{clip-path:url(#SVGID_532_);enable-background:new    ;}
	.st122{clip-path:url(#SVGID_534_);enable-background:new    ;}
	.st123{clip-path:url(#SVGID_536_);enable-background:new    ;}
	.st124{clip-path:url(#SVGID_538_);enable-background:new    ;}
	.st125{clip-path:url(#SVGID_540_);enable-background:new    ;}
	.st126{clip-path:url(#SVGID_542_);enable-background:new    ;}
	.st127{clip-path:url(#SVGID_544_);enable-background:new    ;}
	.st128{clip-path:url(#SVGID_546_);enable-background:new    ;}
	.st129{clip-path:url(#SVGID_548_);enable-background:new    ;}
	.st130{clip-path:url(#SVGID_550_);enable-background:new    ;}
	.st131{clip-path:url(#SVGID_552_);enable-background:new    ;}
	.st132{clip-path:url(#SVGID_554_);enable-background:new    ;}
	.st133{clip-path:url(#SVGID_556_);enable-background:new    ;}
	.st134{clip-path:url(#SVGID_558_);enable-background:new    ;}
	.st135{clip-path:url(#SVGID_644_);enable-background:new    ;}
	.st136{clip-path:url(#SVGID_646_);enable-background:new    ;}
	.st137{clip-path:url(#SVGID_648_);enable-background:new    ;}
	.st138{clip-path:url(#SVGID_650_);enable-background:new    ;}
	.st139{clip-path:url(#SVGID_652_);enable-background:new    ;}
	.st140{clip-path:url(#SVGID_654_);enable-background:new    ;}
	.st141{clip-path:url(#SVGID_656_);enable-background:new    ;}
	.st142{clip-path:url(#SVGID_658_);enable-background:new    ;}
	.st143{clip-path:url(#SVGID_660_);enable-background:new    ;}
	.st144{clip-path:url(#SVGID_662_);enable-background:new    ;}
	.st145{clip-path:url(#SVGID_664_);enable-background:new    ;}
	.st146{clip-path:url(#SVGID_666_);enable-background:new    ;}
	.st147{clip-path:url(#SVGID_668_);enable-background:new    ;}
	.st148{clip-path:url(#SVGID_670_);enable-background:new    ;}
	.st149{clip-path:url(#SVGID_672_);enable-background:new    ;}
	.st150{clip-path:url(#SVGID_674_);enable-background:new    ;}
	.st151{clip-path:url(#SVGID_676_);enable-background:new    ;}
	.st152{clip-path:url(#SVGID_678_);enable-background:new    ;}
	.st153{clip-path:url(#SVGID_680_);enable-background:new    ;}
	.st154{clip-path:url(#SVGID_682_);enable-background:new    ;}
	.st155{clip-path:url(#SVGID_684_);enable-background:new    ;}
	.st156{clip-path:url(#SVGID_686_);enable-background:new    ;}
	.st157{clip-path:url(#SVGID_688_);enable-background:new    ;}
	.st158{clip-path:url(#SVGID_774_);enable-background:new    ;}
	.st159{clip-path:url(#SVGID_776_);enable-background:new    ;}
	.st160{clip-path:url(#SVGID_778_);enable-background:new    ;}
	.st161{clip-path:url(#SVGID_780_);enable-background:new    ;}
	.st162{clip-path:url(#SVGID_782_);enable-background:new    ;}
	.st163{clip-path:url(#SVGID_784_);enable-background:new    ;}
	.st164{clip-path:url(#SVGID_786_);enable-background:new    ;}
	.st165{clip-path:url(#SVGID_788_);enable-background:new    ;}
	.st166{clip-path:url(#SVGID_790_);enable-background:new    ;}
	.st167{clip-path:url(#SVGID_792_);enable-background:new    ;}
	.st168{clip-path:url(#SVGID_794_);enable-background:new    ;}
	.st169{clip-path:url(#SVGID_796_);enable-background:new    ;}
	.st170{clip-path:url(#SVGID_798_);enable-background:new    ;}
	.st171{clip-path:url(#SVGID_800_);enable-background:new    ;}
	.st172{clip-path:url(#SVGID_802_);enable-background:new    ;}
	.st173{clip-path:url(#SVGID_804_);enable-background:new    ;}
	.st174{clip-path:url(#SVGID_806_);enable-background:new    ;}
	.st175{clip-path:url(#SVGID_808_);enable-background:new    ;}
	.st176{clip-path:url(#SVGID_894_);enable-background:new    ;}
	.st177{clip-path:url(#SVGID_896_);enable-background:new    ;}
	.st178{clip-path:url(#SVGID_898_);enable-background:new    ;}
	.st179{clip-path:url(#SVGID_900_);enable-background:new    ;}
	.st180{clip-path:url(#SVGID_902_);enable-background:new    ;}
	.st181{clip-path:url(#SVGID_904_);enable-background:new    ;}
	.st182{clip-path:url(#SVGID_906_);enable-background:new    ;}
	.st183{clip-path:url(#SVGID_908_);enable-background:new    ;}
	.st184{clip-path:url(#SVGID_910_);enable-background:new    ;}
	.st185{clip-path:url(#SVGID_912_);enable-background:new    ;}
	.st186{clip-path:url(#SVGID_914_);enable-background:new    ;}
	.st187{clip-path:url(#SVGID_916_);enable-background:new    ;}
	.st188{clip-path:url(#SVGID_918_);enable-background:new    ;}
	.st189{clip-path:url(#SVGID_920_);enable-background:new    ;}
	.st190{clip-path:url(#SVGID_922_);enable-background:new    ;}
	.st191{clip-path:url(#SVGID_924_);enable-background:new    ;}
	.st192{clip-path:url(#SVGID_926_);enable-background:new    ;}
	.st193{clip-path:url(#SVGID_928_);enable-background:new    ;}
	.st194{clip-path:url(#SVGID_930_);enable-background:new    ;}
	.st195{clip-path:url(#SVGID_932_);enable-background:new    ;}
	.st196{clip-path:url(#SVGID_934_);enable-background:new    ;}
	.st197{clip-path:url(#SVGID_936_);enable-background:new    ;}
	.st198{clip-path:url(#SVGID_938_);enable-background:new    ;}
	.st199{clip-path:url(#SVGID_1010_);enable-background:new    ;}
	.st200{clip-path:url(#SVGID_1012_);enable-background:new    ;}
	.st201{clip-path:url(#SVGID_1014_);enable-background:new    ;}
	.st202{clip-path:url(#SVGID_1016_);enable-background:new    ;}
	.st203{clip-path:url(#SVGID_1018_);enable-background:new    ;}
	.st204{clip-path:url(#SVGID_1020_);enable-background:new    ;}
	.st205{clip-path:url(#SVGID_1022_);enable-background:new    ;}
	.st206{clip-path:url(#SVGID_1024_);enable-background:new    ;}
	.st207{clip-path:url(#SVGID_1026_);enable-background:new    ;}
	.st208{clip-path:url(#SVGID_1028_);enable-background:new    ;}
	.st209{clip-path:url(#SVGID_1030_);enable-background:new    ;}
	.st210{fill:none;stroke:#FFFFFF;stroke-width:0.48;stroke-miterlimit:10;}
	.st211{fill:#FFFFFF;}
	.st212{fill:none;stroke:#000000;stroke-width:0.75;stroke-miterlimit:10;}
	.st213{fill:none;stroke:#000000;stroke-width:2;stroke-miterlimit:10;}
	.st214{fill:#FFE600;stroke:#000000;stroke-miterlimit:10;}
	.st215{fill:none;stroke:#000000;stroke-miterlimit:10;}
	.st216{fill:#FFE600;}
	.st217{fill:none;stroke:#FFFFFF;stroke-width:0.25;stroke-miterlimit:10;}
</style>
<g>
	<path d="M71.5,13.6c1.7-0.5,3.3-1.4,4.7-2.5c0.2-0.2-2.3-6-2.5-6.5c-8.1,3.2-16.9,1-25.4,2.3c-0.5,14.2-1,27.1-0.4,41.4
		c1.7-0.1,3.5-0.3,5.2-0.4c6.7-0.4,13.6,0,20.3,0.1c0.1,0,0.1,0,0.2,0c0,0,0.1-0.1,0.1-0.1c0.6-1.3,1-2.7,1.3-4.1
		c-0.5,0-1-0.1-1.4-0.1c-0.1-1.1-0.1-2.2-0.2-3.3c-0.9,0.1-2.1-0.2-3.1-0.2c-1.2,0-2.4,0-3.6-0.1c-0.6,0-7,0-7-0.1
		c-0.3-3.2-0.6-5.9-0.9-9.1c0-0.3,0-0.6,0.1-0.9c0.2-0.2,0.5-0.4,0.7-0.4c1.4-0.3,4.6-0.1,6.1-0.1c2,0,2.8,1.5,4.5,1.3
		c1.7-0.2,3.1-0.1,3.2-1.8c0-0.6-0.7-1.1-1.2-1.2c0.7-0.2,1.8-0.4,1.8-1c0.1-0.9-1-1-2-0.9c0.9-0.2,1.9-0.7,2-1.7
		c0.2-1.8-2.7-0.8-2.7-0.8s0.7-3.1-1.1-3s-1.3,1.7-1.5,3c-0.1,1-7.1,0.7-9.5,0.5c-0.3,0-0.9-0.3-1.2-0.6C58,23.1,58,22.6,58,22.1
		c0-2.8,0-4.3,0.1-7.2C58.1,15.3,70.4,14,71.5,13.6z M70.7,42.9c0.6,0,1,0.5,1,1s-0.5,1-1,1c-0.6,0-1-0.5-1-1S70.1,42.9,70.7,42.9z
		 M70.9,28c-0.1,0-0.1,0-0.2,0C70.7,28,70.7,28,70.9,28z"/>
	<path d="M36.9,16.1c1-0.4,2.1-0.6,3.2-0.6c-0.2-0.7-0.4-1.4-0.6-2.1c-0.8-2.9-1.8-5.8-2.8-8.6c-2.9,0.4-6.3,0.6-9,1.5
		c1.3,6.3,1.1,13.3,1.3,19.8c-1,0.3-3.7-3.2-4.4-4c-1.4-1.6-2.6-3.4-3.9-5.2c-2.6-3.6-5-7.2-7.1-11.1c-0.1-0.2-0.2-0.3-0.3-0.4
		c-0.2-0.1-0.3-0.1-0.5-0.1C9.4,5.7,6,6.1,2.7,6.8c-0.1,0-0.2,0-0.2,0.1C2.4,7,2.4,7.1,2.4,7.2c0.4,2.9,0.3,5.3,0.2,8.2
		C2.6,19,2.7,22.8,2.5,26.4c-0.2,3.4,0.2,9-0.1,12.4c-0.1,1.1-0.3,1.7-1.1,2.4c-0.6,0.5-2,1.8-0.9,2.6c0.8,0.6,2.3-0.4,2.8,0.4
		c0.1,0.2,0.2,0.4,0.2,0.7C3.6,46.5,4,48,4.5,49.5c0.4,1.1,1.3,0.3,1.6-0.5c0.4-0.9-0.4-2-0.1-2.8C6.2,46,6.4,45.9,6.6,46
		c0.1,0.1,0.2,0.2,0.2,0.3c0.2,0.5,0.4,1.1,0.4,1.7c0,0.3,0.1,0.7,0.3,0.9c1.4,1.2,0.8-2.8,1.6-2.9c1.8-0.3,0.6,2.7,2.1,3
		c0.5,0.1,1-0.3,1.2-0.8c0.2-0.5,0.1-1,0-1.5c-0.7-4.8-1.2-10.2-1.6-15.1c-0.2-2.5,0.1-5.3,0.1-7.8c0-1.7-0.2-4.7,2-2.6
		c3.2,2.9,5.4,8.9,7.7,12.5c2.6,4.3,5.4,8.3,8,12.5c0.1,0.2,0.3,0.4,0.5,0.5c0.2,0.1,0.5,0.1,0.7,0c2.1-0.3,4.3-0.6,6.4-0.9
		c0.6-0.1,0.8-13.7,0.8-15C37.3,26.1,37.6,20.8,36.9,16.1z M35.7,12c-0.6,0-1-0.5-1-1s0.5-1,1-1c0.6,0,1,0.5,1,1S36.3,12,35.7,12z"
		/>
	<path d="M126.9,7.4c-0.2-0.2-0.5-0.3-0.8-0.4c-4.4-0.7-8.9-1.5-13.3-2.2c-0.4-0.1-0.8-0.1-1.1,0.1c-0.3,0.2-0.4,0.5-0.5,0.8
		c-0.4,1.1-0.8,2.1-1.2,3.2c-0.2,0.5-0.4,1.1-0.6,1.6c-0.3,0.5-0.4,0.7-0.3,1.3c0.1,0.4,0.3,0.7,0.3,1.1c0,0.4-0.2,0.8-0.5,0.9
		c-0.2,0-0.5-0.1-0.7-0.1c-0.2,0-0.5,0.2-0.4,0.4c0,0.1,0.2,0.2,0.4,0.3c0.6,0.2,1.3,0.7,1.4,1.3c0.1,0.4-0.1,1.1-0.6,1.1
		c-0.3,0-0.5,0-0.8-0.1c-0.1,0-0.2,0-0.2,0.1c0,0,0,0.1,0.1,0.1c0,0,0.1,0,0.1,0c0.1,0,0.3,0.1,0.4,0.1c0.5,0.2,1.2,0.5,1.2,1.1
		c0,0.3-0.1,0.6-0.4,0.8c-0.2,0.1-0.4,0.1-0.7,0.2c-0.7,0-1.4,0-2.1-0.2c-0.1,0.2-0.1,0.3-0.2,0.5c0.5,0.1,1,0.3,1.4,0.5
		c0.5,0.2,0.9,0.7,0.8,1.2c-0.1,0.4-0.6,0.6-1,0.6c-0.4,0-0.8-0.1-1.3-0.1c-1.1,0.1-1.3,1.1-1.6,2c-0.4,1.2-0.7,2.4-1.1,3.6
		c-0.3,1.1-0.7,2.2-1,3.3c-0.1,0.4-1.1,2.9-0.9,3.1c-0.6-0.6-1-1.4-1.4-2.2c-1.9-4-3.8-8.1-5.4-12.3c-0.8-2.1-1.3-4.3-1.7-6.4
		c-0.4-1.8-0.7-4-1.5-5.7c-0.2-0.4-0.4-0.8-0.8-1c-0.4-0.2-0.9-0.2-1.2,0.1c0,0-0.1,0.1-0.1,0.2c0,0.1,0,0.1,0,0.2
		c0.1,0.3,0.2,0.5,0.1,0.8c-0.1,0.3-0.3,0.5-0.5,0.5c-0.2,0-0.4-0.2-0.4-0.4s-0.1-0.4-0.2-0.6c-0.2-0.3-0.5-0.5-0.9-0.5
		c-0.3,0-0.6,0.4-0.5,0.8c0,0.2,0.2,0.3,0.2,0.5C87.6,8,87,8.1,86.7,7.9c-0.4-0.2-0.6-0.7-0.8-1.1c-0.2-0.6-0.4-1.2-0.8-1.6
		c-0.5-0.4-1.4-0.3-1.5,0.3c0,0.3,0.1,0.6,0.3,0.8c0.5,0.9,0.7,2.2,0.4,3.2c-0.6-0.8-1.9-2.6-2.4-0.8c-0.3,1.1,1.2,2.2,0.7,3.3
		c-0.5,1.1-2.1,0.3-2.8,1.2c-0.4,0.6,0.1,1.4,0.7,1.6c0.6,0.3,1.4,0.3,2,0.5c1.4,0.5,2,2.2,2.5,3.6c1.6,5,3.3,10,5.1,15
		c1.4,4,2.6,8.4,4.3,12.2c0.2,0.5,0.4,1,0.7,1.4c0.1,0.2,0.2,0.4,0.4,0.5c0.2,0.1,0.5,0.1,0.7,0c3.5-0.5,7-1.1,10.5-1.6
		c0.2,0,0.4-0.1,0.6-0.2c0.2-0.1,0.3-0.4,0.4-0.6c1.8-5,3.2-10,4.6-15.1c1.8-6.7,4.8-13.2,6-20.1c0.8,0.2,1.5,0.7,2.2,1
		c2.6,1,5.7-0.7,6.5-3.3C127,8,127,7.7,126.9,7.4z M98.4,37.6c-0.6,0-1-0.5-1-1s0.5-1,1-1c0.6,0,1,0.5,1,1S99,37.6,98.4,37.6z
		 M104.1,37.6c-0.6,0-1-0.5-1-1s0.5-1,1-1c0.6,0,1,0.5,1,1S104.6,37.6,104.1,37.6z"/>
	<path d="M155.2,9.2c0.2-0.2,0.3-0.4,0.3-0.7c-0.1-0.3-0.4-0.4-0.7-0.5c-1.8-0.4-0.1-0.8,0.8-0.7c0.5,0,0.9,0,1.4-0.1
		c0.5-0.1,1-0.2,1.1-0.7c0.1-0.4-0.2-0.8-0.5-1c-0.4-0.2-0.8-0.2-1.3-0.2c-1,0-2.3,0.3-3.2,0.2c-0.8-0.1-0.9-1.1-1.6-1.2
		c-0.3-0.1-0.7,0.1-0.9,0.3c-0.2,0.2-0.4,0.5-0.7,0.7c-1.3,1.1-5.2,0.6-6.7,0.6c-2.4,0-4.8,0.2-7.2,0.1c-0.5,0-4.7-0.4-4.8,0.3
		c-0.2,2.9-0.2,5.8-0.3,8.7c0,0.8,0.2,2.7-0.3,3.4c-0.5,0.7-1.5,0.5-2.3,0.7c-0.7,0.2-1,1.2-0.6,1.8c0.2,0.3,0.4,0.5,0.7,0.7
		c2.9,2.7,1.4,7,1.3,10.5c-0.1,4.3-0.2,9.9,0,14.2c0,0.3,0,0.6,0.2,0.8c0.3,0.5,0.9,0.6,1.4,0.6l0,0c4.3,0.5,9.9,0.8,14.2,1
		c2,0.1,3.9-0.1,6,0c1.7,0.1,3.4,0.1,5.1,0c0.3,0,0.9,0.1,1.2-0.1c0.4-0.3,0.1-1.6,0.1-2.1c-0.1-1.8-0.1-3.5-0.1-5.3
		c-2.4,0-4.8,0-7.2-0.2c-1.2-0.1-2.4-0.1-3.6-0.2c-1-0.1-3.3,0-4.3,0c-1.8-0.1-2.4,0.2-2.4-1.8c-0.1-2.8,0.1-6.6,0-9.4
		c0-0.1,13.1,0.7,13.1-0.1c0-1.5,0-3.9,0.1-5.3c0-0.2,0-0.5,0-0.7c0-0.2-0.1-0.3-0.2-0.4c-0.2-0.2-0.4-0.1-0.7-0.1
		c-3.4,0.2-5.4,0.1-8.8,0c-0.9,0-1.8,0.1-2.8,0c-0.2,0-0.5,0-0.6-0.2c-0.2-0.2-0.2-0.4-0.2-0.6c-0.1-1.8-0.1-3.7-0.1-5.6
		c0-0.5-0.2-2.3,0.1-2.6l0,0c0.8-0.8,2.4-0.4,3.4-0.3c2.9,0.2,7.1,0.1,10,0.2c1.1,0,2.8,0.5,3.8-0.1c0.3-0.2,0.5-0.6,0.4-0.9
		c-0.1-0.4-0.6-0.7-1.1-0.7c-0.8-0.1-1.6,0.1-2.4,0.1c-0.2,0-0.3-0.1-0.3-0.3c0-0.1,0.1-0.1,0.1-0.1c0.3-0.2,0.7-0.1,1-0.3
		c0.3-0.2,0.2-0.8,0-1c-0.2-0.1-2.4-0.5-1.5-0.9c0.2-0.1,0.3-0.1,0.5-0.1c0.3,0,0.6,0,0.9-0.1C155.1,9.2,155.2,9.2,155.2,9.2z
		 M133.1,25.8c-0.6,0-1-0.5-1-1c0-0.6,0.5-1,1-1c0.6,0,1,0.5,1,1C134.2,25.3,133.7,25.8,133.1,25.8z"/>
	<path d="M205.1,41c-0.5-0.2-1.1-0.2-1.6-0.2c-2.1-0.1-4.9-0.2-6.7,1.1c-0.1,0.1-0.3,0.1-0.4,0c-0.1-0.1-0.1-0.3-0.1-0.5
		c0.2-1,0-2,0-3c-0.1-2.4-1-5.3-2.5-7.3c-1.2-1.6-2.7-2.9-4.5-3.7c0.7-0.1,1.4-0.1,2.1-0.2c2-0.4,4.1-0.9,5.8-2c2-1.3,2.9-3.4,3-5.8
		c0-1.1-0.1-2.1-0.3-3.2c-0.2-1.3-0.4-2.7-0.8-4c-1.3-3.8-5.5-5.1-9.1-5.8c-4-0.8-8.1-0.4-12.2,0c-0.6,0.1-2,0.5-1.5,1.4
		c0.2,0.4,0.8,0.4,1.2,0.3c0.5-0.2,1-0.2,1.5-0.3c0.2,0,0.4,0,0.5,0.1c0.1,0.1,0.1,0.2,0.2,0.3c0,0.1,0.1,0.3,0,0.4
		c-0.1,0.2-0.3,0.3-0.5,0.3c-0.6,0.1-1.3,0.2-1.8,0.6c-0.9,0.6,0,1.3,0.8,1.2c0.5-0.1,1-0.1,1.5-0.2c0.2,0,0.5-0.1,0.6,0.1
		c0.2,0.2,0.1,0.5-0.1,0.6c-0.2,0.2-0.4,0.2-0.7,0.2c-0.8,0.1-2.9,0.4-2.6,1.6c0.2,0.6,0.9,0.7,1.5,0.7c2,0.1,4-0.3,6,0
		c2,0.3,4,1.5,4.4,3.4c0.5,2.2-1.3,4.4-3.5,5.2c-1.3,0.5-2.8,0.5-4.1,0.4c-0.3,0-3.6-0.8-3.6-0.3c-0.1-3.3-0.2-6.7-0.9-10
		c-0.5-2.8-2-6.2-4-8.3c-0.1-0.1-0.2-0.2-0.3-0.2c-0.1,0-0.2,0-0.3,0c-2.5,0.7-5,2.3-7.3,3.4c0.3-0.2,2.2,5.3,2.3,5.8
		c0.3,2.1,0.6,4.2,0.8,6.2c0.1,2.1-0.8,4.1-1.9,5.8c-0.3,0.5-0.6,1.1-0.3,1.5c0.9,1.2,2.6-0.3,2.6,1.8c0,2,0,4,0,6
		c-0.1,3.9-0.2,7.8-0.2,11.7c0,0.4,0,0.9,0,1.3c0,0.1,0,0.3,0.1,0.4c0.1,0.2,0.3,0.2,0.5,0.2c1,0.2,2-0.2,2.9-0.3c1-0.1,2.1,0,3.1,0
		c0.7,0.1,1.4,0.1,2.1,0.2c0.3-2,0.4-4,0.4-6c0.1-1.8-0.1-3.7-0.2-5.5c0-0.9,0.1-1.7,0.1-2.6c0-0.5-0.2-1.4,0.1-1.8
		c0.1-0.1,0.3-0.2,0.5-0.2c2.5-0.5,5.8-0.5,8.1,0.8c2.1,1.1,3.5,4.1,3.6,6.4c0.2,2.4-0.1,4.8-0.2,7.2c0,1.4,1.1,1.5,2.2,1.4
		c1.4-0.2,2.9-0.1,4.3-0.1c3.4,0.1,6.7,0.1,10.1,0.2c0.5,0,1,0,1.5-0.2c0.6-0.3,0.9-0.8,0.9-1.4C208.4,44.2,206.5,41.4,205.1,41z
		 M172,22.8c-0.6,0-1-0.5-1-1s0.5-1,1-1s1,0.5,1,1S172.6,22.8,172,22.8z"/>
	<path d="M247.5,31.1c-0.2-0.2-0.6-0.2-1-0.1c-1.5,0.4-3.1,1.7-3.5,3.2c-0.5,1.5-0.3,3.1-0.1,4.6c0.2,1.3-3.8,1.1-4.7,1.1
		c-1.9,0-1.9-0.1-3.8-0.1c-2.7-0.1-6.3-0.3-9-0.4c-0.3,0-0.7,0-1-0.2c-0.5-0.3-0.5-1-0.5-1.6c0.1-5.8,0.2-12.1,0.2-18
		c0-1.1,0-2.2,0.3-3.2c0.3-1.1,0.8-2.1,0.5-3.2c-0.1-0.4-0.4-0.8-0.4-1.2c0.1-0.7,0.8-1.1,1-1.8c0.2-1-1-1.6-1.6-2.4
		c-0.5-0.6-0.6-1.4-0.9-2.1c-0.3-0.7-1-1.4-1.8-1.2c-0.5,0.1-1.4,0.6-1.9,0.5c-0.6-0.1-0.9-0.7-1.2-1.2c-0.7-0.8-2-1-2.8-0.3
		c-0.8,0.6-1,2-0.4,2.8c0.4,0.6,1.3,1.1,1.1,1.9c-0.3,1.4-2.8,0.3-3.7,1.3c-0.6,0.7,0.1,1.8,0.8,2.5s1.7,1.3,1.6,2.3
		c0,0.4-0.3,0.8-0.5,1.1c-1.2,2.1-0.4,4.8-0.4,7.1c-0.1,3-0.1,3.7-0.2,6.6c0,2.1-0.2,4.5-1.9,5.8c-0.3,0.2-0.7,0.5-0.7,0.9
		c-0.1,0.5,0.5,0.9,1,1c0.5,0.1,1.1,0,1.6,0.1c1.2,0.2,1.9,1.1,1.9,2.2c0.1,1.7,0,6.7,0,8.5c0,0.1,0,0.3,0.1,0.4
		c0.1,0.1,0.3,0.1,0.5,0.1c2.7,0,31.5,0.3,31.5-0.3c-0.1-5,0-10.1,0.3-15.1c0-0.2,0-0.5,0-0.7C247.7,31.7,247.7,31.3,247.5,31.1z
		 M216.6,33.2c-0.6,0-1-0.5-1-1s0.5-1,1-1c0.6,0,1,0.5,1,1S217.1,33.2,216.6,33.2z"/>
	<path d="M287,26.7c-0.4-0.7-1.1-1.4-1.6-2.1c-2-2.3-3.5-4.6-4.6-7.5c-0.9-2.6-1.7-5.2-2.3-7.9c-0.4-1.7-0.5-4.5-2.3-5.5
		c-0.6-0.3-1.6-0.1-2.3-0.2c-2-0.1-3.6-0.3-5.7-0.2c-0.3,0-0.7,0-1,0.2c-0.4,0.2-0.6,0.5-0.8,0.8c-1.6,2.4-2.5,5.5-4.9,7.4
		c-0.5,0.4-1.2,0.8-1.5,1.3c-0.2,0.3-0.3,0.6-0.2,0.9c0.1,0.5,0.8,0.7,1.3,0.7c0.6,0.1,1.2,0.1,1.6,0.4c0.6,0.5,0.4,1.4,0.1,2.1
		c-1.7,4.5-3.6,9-5.4,13.5c-2,5-3.6,10.1-5.3,15.2c0,0.1-0.1,0.3-0.1,0.4c0,0.2,0.2,0.3,0.3,0.4c0.6,0.4,1.3,0.5,2,0.5
		c1.7,0.2,4.4,0.2,6,0.3c0.2,0,0.5,0,0.7-0.1c0.2-0.1,0.3-0.4,0.4-0.7c0.5-1.7,0.9-3.4,1.5-5.1c0.8-2,1.3-4,2.5-6
		c0.1-0.1,0.1-0.2,0.2-0.2c0.1-0.1,0.2-0.1,0.4-0.1c2-0.1,3-0.1,5,0.1c1.3,0.1,4.9,0,5.4,1.3c0.3,0.7,2.5,5.4,1.6,5.8
		c-0.4,0.2-2.2-0.9-2.7-1c-1-0.2-2.1-0.1-3.1,0.3c-1.4,0.5-5.3,4.1-3.1,5.6c0.3,0.2,0.6,0.2,1,0.2c2,0.1,4-0.4,6.1-0.5
		c1.4,0,3.4,0.1,4.8,0.3c0.8,0.1,5,0.7,5.6,0.1c0.5-0.5-0.2-2.5-0.3-3.2c-0.2-1.3-1.2-3.7-1.7-5c-0.9-2.5-1.7-3.5-0.5-4.5
		c0.5-0.4,1.1-0.6,1.7-0.9C288.4,32.8,288.3,29.1,287,26.7z M265.7,11.6c-0.6,0-1.1-0.5-1.1-1.1s0.5-1.1,1.1-1.1s1.1,0.5,1.1,1.1
		S266.3,11.6,265.7,11.6z M273.9,26.5c-0.5,0.8-1.7,1-2.6,1.1c-0.4,0-3.4-0.6-3.5-0.3c0.4-1.6,0.9-3.2,1.4-4.8c0.3-1,0.7-3,1.4-3.7
		c0.7,1.1,0.9,2,2.2,3.5c0.6,0.7,1.1,1.4,1.4,2.3C274.3,25.4,274.2,26.1,273.9,26.5z"/>
	<path d="M335.5,13.5c-0.6-3.1-1.3-6.2-2.1-9.2c-0.7,0.1-8.6-0.5-8.6-0.6c-1.2,3.2-3.2,5.7-5.2,8.5c0.7,0.2,1.9,0.3,1.6,1.3
		c-1.1,2.9-2.1,6-4.2,8.3c0.2-0.2-2.5-5-2.7-5.5c-2-4-4.3-7.9-7.2-11.3c-0.1-0.1-0.2-0.2-0.3-0.3c-0.1-0.1-0.3,0-0.4,0
		c-2.7,0.5-5.3,1.2-7.8,2.1c0.1,0-1.1,6.5-1.3,7.1c-0.9,2.7-1.7,5.4-2.5,8.2c0,0.1,0,0.1,0,0.2c0,0.1,0.1,0.1,0.2,0.2
		c0.5,0.2,1.1,0.4,1.7,0.3c-1.6,10.6-2.1,21.9-2.1,23.6c0-0.1,9.5,0.4,9.5,0.2c0.8-6.3,0.6-8.3,0.8-12.2c0.1-2,0.7-5.6,0.8-6.6
		c0.1-0.8,0.4-2.4,1.2-2.9c2.4,2.4,3,6.3,3.8,9.5c0.7,2.9,1.4,5.7,2.1,8.6c0,0.1,0.1,0.7,0.2,0.7c2.2,0.1,5.2,0.1,7.4,0.2
		c0.7-3.2,1.2-6.5,2-9.7c0.8-3.2,2.1-6.4,3.2-9.6c0.3-0.8,0.3-0.9,1.1-0.8c0.5,0.1,1.4,3.5,2.3,9.2c0.7,4.7,1.5,14.2,1.5,14.2
		s8.3-0.1,8.3,0C338.7,36,337.7,24.6,335.5,13.5z M325.1,10.8c-0.6,0-1-0.5-1-1s0.5-1,1-1s1,0.5,1,1S325.7,10.8,325.1,10.8z
		 M299.1,19c-0.6,0-1-0.5-1-1s0.5-1,1-1c0.6,0,1,0.5,1,1S299.7,19,299.1,19z M315,41c-0.6,0-1-0.5-1-1s0.5-1,1-1s1,0.5,1,1
		S315.6,41,315,41z M318.2,41c-0.6,0-1-0.5-1-1s0.5-1,1-1c0.6,0,1,0.5,1,1S318.8,41,318.2,41z"/>
	<path d="M376.2,38.9c-0.3-0.4-1-0.5-1.4-0.1c-0.5,0.4-0.3,1.3-0.7,1.8c-0.5,0.6-1.5,0.2-1.8-0.5c-0.1-0.4,0-0.8-0.2-1.2
		c-0.2-0.4-0.6-0.6-1-0.6c-0.4,0-0.8,0.3-0.9,0.7c-0.1,0.3,0,0.7-0.1,1c-0.1,0.5-0.6,0.9-1,0.9c-0.5,0-1-0.3-1.1-0.8
		c-0.1-0.3-0.1-0.6-0.2-0.9c-0.2-0.5-0.9-0.7-1.5-0.8c-0.2,0-0.5-0.1-0.7,0c-0.5,0.2-0.5,0.8-0.5,1.3c0,0.5-0.1,1.2-0.6,1.3
		c-0.5,0.1-0.9-0.3-1-0.8c-0.2-0.8,0-1.6-1.1-1.6c-0.7,0-1.4,0.5-2.1,0.7c-1,0.3-2.1-0.3-2.8-1.2c-1.3-1.8-1.2-5.7-1.1-7.7
		c0.1-1,0.5-1.6,1.5-1.8c3.8-0.8,7.6-0.8,11.5-0.8c0.3,0,0.5,0,0.8-0.1c0.4-0.2,0.6-0.6,0.6-1c0-0.4,0.3-5.4,0.2-5.4
		c-2.5,0.2-5.1,0.3-7.6,0.4c-2.4,0.1-4.8,0.4-7.2,0l-0.1,0c-0.2-2.9-0.3-4.9-0.3-7.8c0-0.4,0-0.8,0.2-1.1c0.1-0.2,0.4-0.3,0.6-0.4
		c1.6-0.8,3.5-0.3,5.2-0.4c1.9-0.1,3.9,0.3,5.8,0.5c0.5,0,5.2,0.3,5.2,0.5c0.7-3.9,1.1-7.6,1.2-11.5c0-0.5,0-1-0.3-1.3
		c-0.5-0.5-1.4-0.2-2,0.3c-1.5,1.3-2.5,3.2-2.5,5.2c-7.2,0.3-14.4-0.7-21.7-0.4c-0.5,0-1,0.1-1.3,0.4c-0.2,0.3-0.2,0.7-0.2,1.1
		c0.1,6.5-0.3,14-0.4,20.6c-0.1,3.4-0.1,6.8,0,10.2c0.1,3.1,0,6.6,1,9.5c0,0.1,0,0.1,0.1,0.1c0,0,0.1,0,0.1,0c3.7-0.2,7.3,0,11,0.1
		c2,0,4,0,6.1-0.1c1.7-0.1,3.5-0.1,5.2-0.1c2.3,0,4.5,0,6.8-0.2c0.1-2.2,0.6-4.4,0.6-6.6C376.6,39.8,376.5,39.3,376.2,38.9z
		 M357.2,24.2c0.6,0,1,0.5,1,1c0,0.6-0.5,1-1,1c-0.6,0-1-0.5-1-1C356.2,24.7,356.7,24.2,357.2,24.2z"/>
</g>
</svg>
