<?xml version="1.0" encoding="utf-8"?>
<!-- Generator: Adobe Illustrator 21.1.0, SVG Export Plug-In . SVG Version: 6.00 Build 0)  -->
<svg version="1.1" id="Layer_1" xmlns="http://www.w3.org/2000/svg" xmlns:xlink="http://www.w3.org/1999/xlink" x="0px" y="0px"
	 viewBox="0 0 97 95.7" style="enable-background:new 0 0 97 95.7;" xml:space="preserve">
<style type="text/css">
	.st0{fill:#FFFFFF;}
	.st1{display:none;}
</style>
<g>
	<g>
		<path class="st0" d="M47.6,4.6C42.7,5.8,37.8,7.1,33,8.7c-4.3,1.4-8.9,2.8-12.7,5.5c-7.2,5-11.7,13.6-13.6,22
			C4.8,44.9,5.5,54,8.9,62.3c3.3,8.1,8.2,16.4,15.9,20.9c7.7,4.5,18.1,6.4,26.9,6.2c7.5-0.1,15-2.6,21.1-6.9
			c6.1-4.3,11-10.1,13.8-17.1c3.4-8.5,3.2-18.8,2.4-27.8c-0.4-5-1.7-9.8-4.7-14c-2.9-4-6.7-7.5-10.5-10.7C65.9,6.4,56.5,1.8,46,3.4
			c-3.2,0.5-1.8,5.3,1.3,4.8c8.2-1.3,16.1,2.6,22.3,7.6c6,4.8,12.5,10.5,14,18.4c0.8,4.1,0.7,8.4,0.7,12.5c0,4.3-0.1,8.6-1.1,12.7
			c-1.5,6.4-5.2,12-10.1,16.4C61.7,86,45.8,86,32,81c-7.7-2.8-12.5-8.7-16.2-15.8c-3.8-7.2-5.7-14.9-5-23.1
			c0.8-8.3,4.3-17.4,10.9-22.8c3.6-3,8.3-4.4,12.7-5.8c4.8-1.6,9.7-2.9,14.6-4.1C52.1,8.7,50.7,3.8,47.6,4.6L47.6,4.6z"/>
	</g>
</g>
<g id="landing:hover" class="st1">
</g>
<g id="works_window" class="st1">
</g>
<g id="project_window" class="st1">
</g>
<g id="project_2" class="st1">
</g>
<g id="project_2_1_" class="st1">
</g>
<g>
	<g>
		<path class="st0" d="M31.3,59c10.4-8.1,25.1-6.9,34.4,2.2c2.3,2.3,5.8-1.3,3.5-3.5c-11.4-11.3-28.9-12-41.5-2.2
			C25.2,57.4,28.8,61,31.3,59L31.3,59z"/>
	</g>
</g>
<g>
	<g>
		<path class="st0" d="M37.3,32.8c0,0.3,0,0.6,0,0.9c0,1.3,1.1,2.6,2.5,2.5c1.4-0.1,2.5-1.1,2.5-2.5c0-0.3,0-0.6,0-0.9
			c0-1.3-1.1-2.6-2.5-2.5C38.4,30.3,37.3,31.4,37.3,32.8L37.3,32.8z"/>
	</g>
</g>
<g>
	<g>
		<path class="st0" d="M54.2,32.4c0,0.5,0,1,0,1.5c0,1.3,1.1,2.6,2.5,2.5c1.4-0.1,2.5-1.1,2.5-2.5c0-0.5,0-1,0-1.5
			c0-1.3-1.1-2.6-2.5-2.5C55.4,30,54.2,31,54.2,32.4L54.2,32.4z"/>
	</g>
</g>
</svg>
