<?xml version="1.0" encoding="utf-8"?>
<!-- Generator: Adobe Illustrator 21.1.0, SVG Export Plug-In . SVG Version: 6.00 Build 0)  -->
<svg version="1.1" id="Layer_1" xmlns="http://www.w3.org/2000/svg" xmlns:xlink="http://www.w3.org/1999/xlink" x="0px" y="0px"
	 viewBox="0 0 652 229.4" style="enable-background:new 0 0 652 229.4;" xml:space="preserve">
<style type="text/css">
	.st0{fill:#F2F2F2;}
	.st1{fill:none;stroke:#000000;stroke-width:3.5595;stroke-miterlimit:10;}
	.st2{fill:#FFFFFF;stroke:#000000;stroke-width:3.3815;stroke-miterlimit:10;}
	.st3{stroke:#000000;stroke-width:0.7985;stroke-miterlimit:10;}
	.st4{fill:none;stroke:#000000;stroke-miterlimit:10;}
	.st5{fill:none;stroke:#000000;stroke-width:2.7542;stroke-miterlimit:10;}
	.st6{fill:none;}
	.st7{enable-background:new    ;}
	.st8{fill:#231F20;}
	.st9{display:none;}
</style>
<g id="landing">
	<g>
		<g>
			<rect class="st0" width="652" height="229.4"/>
		</g>
		<g>
			<g>
				<polygon class="st1" points="580.7,159.5 41.7,157.4 41.7,35.7 580.7,37.8 				"/>
				<rect x="35.7" y="30.4" class="st2" width="10.6" height="10.6"/>
				<rect x="35.7" y="154.2" class="st2" width="10.6" height="10.6"/>
				<rect x="35.7" y="91.8" class="st2" width="10.6" height="10.6"/>
				<rect x="305.6" y="30.4" class="st2" width="10.6" height="10.6"/>
				<rect x="306" y="154.2" class="st2" width="10.6" height="10.6"/>
				<rect x="307.9" y="94.7" class="st3" width="6.1" height="6.1"/>
				<rect x="575.3" y="30.4" class="st2" width="10.6" height="10.6"/>
				<rect x="576.8" y="154.2" class="st2" width="10.6" height="10.6"/>
				<rect x="576.8" y="91.8" class="st2" width="10.6" height="10.6"/>
				<line class="st1" x1="582.1" y1="97.1" x2="613.7" y2="97.1"/>
				<circle cx="616.1" cy="97.1" r="5.6"/>
				<line class="st1" x1="311.3" y1="165.1" x2="311.3" y2="199.8"/>
				<line class="st4" x1="443.9" y1="81.1" x2="41.7" y2="81.1"/>
				<line class="st4" x1="548" y1="136.1" x2="41.7" y2="136.1"/>
				<rect x="33" y="52.9" class="st5" width="17.4" height="17.4"/>
				<rect x="572" y="124.9" class="st5" width="17.4" height="17.4"/>
				<rect x="302.3" y="190.8" width="18" height="18"/>
			</g>
			<rect x="51.5" y="47.6" class="st6" width="518.5" height="111.2"/>
			<g class="st7">
				<path class="st8" d="M103.3,65v16.2h-3.6V65c0-2.9-2.1-4.9-5.6-4.9c-4.5,0-7.1,2.7-7.1,6.6v14.5h-3.7V51.4H67.9v29.8h-3.8V51.4
					h-1.6c-3.1,0-6.8,0-10.4-0.7l0.6-3.8c2.7,0.5,6,0.7,9.8,0.7h24.5v12c1.6-2.3,3.9-3.1,7.3-3.1C100,56.5,103.3,60.2,103.3,65z"/>
				<path class="st8" d="M123,56.8v3.6h-2c-3.9,0-7,2.1-7,6.6v14.3h-3.6V57h3.6v2.9c1.6-2.2,3.9-3,7-3H123z"/>
				<path class="st8" d="M146.7,69c0,7.8-4.4,12.5-10.9,12.5c-6.5,0-10.9-4.8-10.9-12.5c0-7.7,4.4-12.5,10.9-12.5
					C142.4,56.5,146.7,61.3,146.7,69z M143,69c0-5.7-2.6-8.9-7.2-8.9c-4.6,0-7.2,3.2-7.2,8.9c0,5.7,2.6,8.9,7.2,8.9
					C140.4,77.9,143,74.7,143,69z"/>
				<path class="st8" d="M171.9,57v24.3h-3.7v-2.9c-1.6,2.3-3.9,3.2-7.3,3.2c-5.5,0-8.8-3.7-8.8-8.5V57h3.7v16c0,3,2,4.9,5.5,4.9
					c4.4,0,7-2.7,7-6.6V57H171.9z"/>
				<path class="st8" d="M200.3,83.8c0,5.2-4.8,8.1-11.6,8.1c-7,0-11.5-3-11.5-7.7c0-2.4,1.1-4,2.9-4.8c-1.4-1-2.2-2.6-2.2-4.2
					c0-1.9,1.1-3.9,3.3-4.8c-1.1-1.4-1.7-3.2-1.7-5.3c0-5,3.6-8.5,9-8.5c2.1,0,4,0.5,5.4,1.5c2.2-0.2,3.7-1.9,3.7-4.2h3.6
					c0,3.3-1.8,5.8-4.9,6.8c0.7,1.2,1.1,2.8,1.1,4.5c0,5.1-3.6,8.5-8.9,8.5c-1.8,0-3.5-0.4-4.8-1.2c-1.3,0.4-2,1.6-2,2.8
					c0,1.3,0.9,2.5,2.6,2.5h8.5C197.8,77.7,200.3,80.1,200.3,83.8z M196.7,83.8c0-1.6-0.9-2.5-3.9-2.5h-9.1c-2.4,0-2.9,1.4-2.9,2.6
					c0,3,2.6,4.5,7.8,4.5C193.7,88.4,196.7,86.9,196.7,83.8z M183,65.1c0,3.1,2,5.1,5.4,5.1c3.5,0,5.4-2,5.4-5.1c0-3-2-5.1-5.4-5.1
					C185,60,183,62,183,65.1z"/>
				<path class="st8" d="M224.8,65v16.2h-3.6V65c0-2.9-2.1-4.9-5.5-4.9c-4.5,0-7.1,2.7-7.1,6.6v14.5H205V47.6h3.6v12
					c1.6-2.3,3.9-3.2,7.4-3.2C221.6,56.5,224.8,60.2,224.8,65z"/>
				<path class="st8" d="M263.2,70.8c0,0.4,0.1,0.8,0.1,1.3c0,5.5-3.8,9.4-10.1,9.4c-7.4,0-11.1-5.4-11.1-12.6
					c0-8.4,5.1-12.4,11.1-12.4c4.5,0,7.4,1.7,9.3,5.2l-3.1,2.2c-1.2-2.4-3-3.7-6.3-3.7c-4.2,0-7.2,2.7-7.2,8.8c0,5.9,2.7,9,7.5,9
					c4.1,0,6.4-2.4,6.4-6.4c0-0.2,0-0.5,0-0.7H263.2z"/>
				<path class="st8" d="M288.5,57v24.3h-3.7v-2.9c-1.6,2.3-3.9,3.2-7.3,3.2c-5.5,0-8.8-3.7-8.8-8.5V57h3.7v16c0,3,2,4.9,5.5,4.9
					c4.4,0,7-2.7,7-6.6V57H288.5z"/>
				<path class="st8" d="M308.4,56.8v3.6h-2c-3.9,0-7,2.1-7,6.6v14.3h-3.6V57h3.6v2.9c1.6-2.2,3.9-3,7-3H308.4z"/>
				<path class="st8" d="M312.4,47.6h4v4.5h-4V47.6z M312.6,81.2V57h3.6v24.3H312.6z"/>
				<path class="st8" d="M343.7,69c0,7.8-4.4,12.5-10.9,12.5c-6.5,0-10.9-4.8-10.9-12.5c0-7.7,4.4-12.5,10.9-12.5
					C339.3,56.5,343.7,61.3,343.7,69z M339.9,69c0-5.7-2.6-8.9-7.2-8.9c-4.6,0-7.2,3.2-7.2,8.9c0,5.7,2.6,8.9,7.2,8.9
					C337.3,77.9,339.9,74.7,339.9,69z"/>
				<path class="st8" d="M366.1,74.2c0,4.9-4.1,7.3-8.7,7.3c-4.2,0-9.6-1.9-9.6-8c0-0.3,0-0.7,0-1.1h3.6c0,0.3,0,0.4,0,0.5
					c0,3.8,3,5,6,5c3.2,0,5-1.3,5-3.5c0-2.4-2.3-3-5.2-3.6c-3.8-0.9-8.4-1.9-8.4-7c0-4.7,3.7-7.4,8.2-7.4c3.2,0,6.3,1.4,7.9,4.5
					l-3.1,2c-0.9-2-3-3-5-3c-2.7,0-4.3,1.5-4.3,3.6c0,2.7,2.8,3.4,5.7,4C361.9,68.5,366.1,69.3,366.1,74.2z"/>
				<path class="st8" d="M371.3,47.6h4v4.5h-4V47.6z M371.5,81.2V57h3.6v24.3H371.5z"/>
				<path class="st8" d="M395.4,77.6v3.6h-4.3c-4.5,0-6.8-3-6.8-7.7V60.4h-4.9V57h4.9v-6.1h3.6V57h0.1c2.6,0,4.6-0.1,6.8-0.5
					l0.5,3.4c-2.4,0.4-4.7,0.6-7.4,0.6v12.9c0,2.8,1,4.3,3.5,4.3H395.4z"/>
				<path class="st8" d="M419.8,57l-9.7,26.7c-1.7,4.6-3.2,6.8-7.8,6.8H399v-3.6h2.6c2.5,0,3.8-0.8,4.8-3.5l0.6-1.7L397.3,57h4.2
					l7.2,19.7l7.1-19.7H419.8z"/>
				<path class="st8" d="M427.7,75.8c0,6.3-1.6,10.2-7.6,12.6l-1.5-3.3c4.2-1.8,5.4-4.1,5.4-9.3H427.7z"/>
			</g>
			<g class="st7">
				<path class="st8" d="M76.6,132.5v3.7H55.5v-33.6h11.1c3.8,0,7-0.2,9.7-0.7l0.6,3.8c-3.5,0.7-7.3,0.7-10.3,0.7h-7.2v11.1h14.7
					v3.7H59.4v11.2H76.6z"/>
				<path class="st8" d="M82.4,102.6h4v4.5h-4V102.6z M82.6,136.2V112h3.6v24.3H82.6z"/>
				<path class="st8" d="M113.4,120v16.2h-3.6V120c0-2.9-2.1-4.9-5.5-4.9c-4.5,0-7.1,2.7-7.1,6.6v14.5h-3.6V112h3.6v2.7
					c1.6-2.3,3.9-3.2,7.4-3.2C110.2,111.5,113.4,115.2,113.4,120z"/>
				<path class="st8" d="M141.6,138.8c0,5.2-4.8,8.1-11.6,8.1c-7,0-11.5-3-11.5-7.7c0-2.4,1.1-4,2.9-4.8c-1.4-1-2.2-2.6-2.2-4.2
					c0-1.9,1.1-3.9,3.3-4.8c-1.1-1.4-1.7-3.2-1.7-5.3c0-5,3.6-8.5,9-8.5c2.1,0,4,0.5,5.4,1.5c2.2-0.2,3.7-1.9,3.7-4.2h3.6
					c0,3.3-1.8,5.8-4.9,6.8c0.7,1.2,1.1,2.8,1.1,4.5c0,5.1-3.6,8.5-8.9,8.5c-1.8,0-3.5-0.4-4.8-1.2c-1.3,0.4-2,1.6-2,2.8
					c0,1.3,0.9,2.5,2.6,2.5h8.5C139.1,132.7,141.6,135.1,141.6,138.8z M138,138.8c0-1.6-0.9-2.5-3.9-2.5h-9.1
					c-2.4,0-2.9,1.4-2.9,2.6c0,3,2.6,4.5,7.8,4.5C135,143.4,138,141.9,138,138.8z M124.3,120.1c0,3.1,2,5.1,5.4,5.1
					c3.5,0,5.4-2,5.4-5.1c0-3-2-5.1-5.4-5.1C126.3,115,124.3,117,124.3,120.1z"/>
				<path class="st8" d="M181.7,123.9c0,7.4-4.5,12.4-11.1,12.4c-3.5,0-6-1.3-7.7-3.6v13.8h-3.6V112h3.6v3.4
					c1.6-2.4,4.1-3.8,7.7-3.8C177.2,111.5,181.7,116.5,181.7,123.9z M178,123.8c0-4.8-2.4-8.7-7.4-8.7c-5.1,0-7.7,4.1-7.7,8.9
					c0,4.8,2.5,8.7,7.5,8.7C175.5,132.7,178,128.6,178,123.8z"/>
				<path class="st8" d="M187.2,136.2v-33.6h3.6v33.6H187.2z"/>
				<path class="st8" d="M206.9,111.5c6.1,0,9.4,3.2,9.4,8.4v16.4h-3.6v-2.8c-1.4,2-3.8,3.1-6.9,3.1c-6.3,0-9.3-4.4-9.3-8.4
					c0-3.5,2.3-6.6,6.7-6.6h5.3c1.7,0,3.1,0.3,4.2,1.2v-3c0-3.3-2.3-4.7-6-4.7c-2.5,0-4.9,0.6-5.8,3.6l-3.3-1.3
					C198.7,113.4,202.2,111.5,206.9,111.5z M212.7,127.9c0-2-1.3-2.9-3.4-2.9H203c-2,0-2.9,1.2-2.9,3.1c0,2.4,1.5,5,5.8,5
					C209.9,133,212.7,130.9,212.7,127.9z"/>
				<path class="st8" d="M242.8,112l-9.7,26.7c-1.7,4.6-3.2,6.8-7.8,6.8h-3.3v-3.6h2.6c2.5,0,3.8-0.8,4.8-3.5l0.6-1.7l-9.6-24.8h4.2
					l7.2,19.7l7.1-19.7H242.8z"/>
				<path class="st8" d="M263,129.2c0,4.9-4.1,7.3-8.7,7.3c-4.2,0-9.6-1.9-9.6-8c0-0.3,0-0.7,0-1.1h3.6c0,0.3,0,0.4,0,0.5
					c0,3.8,3,5,6,5c3.2,0,5-1.3,5-3.5c0-2.4-2.3-3-5.2-3.6c-3.8-0.9-8.4-1.9-8.4-7c0-4.7,3.7-7.4,8.2-7.4c3.2,0,6.3,1.4,7.9,4.5
					l-3.1,2c-0.9-2-3-3-5-3c-2.7,0-4.3,1.5-4.3,3.6c0,2.7,2.8,3.4,5.7,4C258.9,123.5,263,124.3,263,129.2z"/>
				<path class="st8" d="M288.2,111.5c6.1,0,9.4,3.2,9.4,8.4v16.4H294v-2.8c-1.4,2-3.8,3.1-6.9,3.1c-6.3,0-9.3-4.4-9.3-8.4
					c0-3.5,2.3-6.6,6.7-6.6h5.3c1.7,0,3.1,0.3,4.2,1.2v-3c0-3.3-2.3-4.7-6-4.7c-2.5,0-4.9,0.6-5.8,3.6l-3.3-1.3
					C280,113.4,283.5,111.5,288.2,111.5z M294,127.9c0-2-1.3-2.9-3.4-2.9h-6.2c-2,0-2.9,1.2-2.9,3.1c0,2.4,1.5,5,5.8,5
					C291.2,133,294,130.9,294,127.9z"/>
				<path class="st8" d="M324.4,120v16.2h-3.6V120c0-2.9-2.1-4.9-5.5-4.9c-4.5,0-7.1,2.7-7.1,6.6v14.5h-3.6V112h3.6v2.7
					c1.6-2.3,3.9-3.2,7.4-3.2C321.2,111.5,324.4,115.2,324.4,120z"/>
				<path class="st8" d="M348.5,115.2v-12.5h3.7v33.6h-3.7v-3.4c-1.6,2.3-4.2,3.6-7.6,3.6c-6.6,0-11.2-4.9-11.2-12.5
					c0-7.5,4.6-12.5,11.2-12.5C344.3,111.5,346.9,112.9,348.5,115.2z M348.5,124.1c0-4.9-2.6-9-7.7-9c-4.9,0-7.4,3.9-7.4,8.7
					c0,4.9,2.5,9.1,7.5,9.1C346,132.9,348.5,129,348.5,124.1z"/>
				<path class="st8" d="M388.5,115.2v-12.5h3.7v33.6h-3.7v-3.4c-1.6,2.3-4.2,3.6-7.6,3.6c-6.6,0-11.2-4.9-11.2-12.5
					c0-7.5,4.6-12.5,11.2-12.5C384.3,111.5,386.9,112.9,388.5,115.2z M388.5,124.1c0-4.9-2.6-9-7.7-9c-4.9,0-7.4,3.9-7.4,8.7
					c0,4.9,2.5,9.1,7.5,9.1C386.1,132.9,388.5,129,388.5,124.1z"/>
				<path class="st8" d="M408.3,125.5c-2.4,0-4.8-0.2-6.8-0.8c0.1,5,2.2,8.2,7.4,8.2c3.8,0,5.7-1.7,5.8-4.5h3.5
					c-0.1,5.3-4.4,8.1-9.6,8.1c-7.2,0-10.8-5.3-10.8-12.5c0-8.3,4.8-12.5,10.9-12.5c6,0,9.9,4.1,9.9,11.3c0,0.8,0,1.5-0.2,2.7H408.3
					z M401.8,121.2c1.7,0.6,4.3,0.8,6.7,0.8h6.5c0-4.8-2.6-7-6.4-7C404.6,115,402.5,117.5,401.8,121.2z"/>
				<path class="st8" d="M441,129.2c0,4.9-4.1,7.3-8.7,7.3c-4.2,0-9.6-1.9-9.6-8c0-0.3,0-0.7,0-1.1h3.6c0,0.3,0,0.4,0,0.5
					c0,3.8,3,5,6,5c3.2,0,5-1.3,5-3.5c0-2.4-2.3-3-5.2-3.6c-3.8-0.9-8.4-1.9-8.4-7c0-4.7,3.7-7.4,8.2-7.4c3.2,0,6.3,1.4,7.9,4.5
					l-3.1,2c-0.9-2-3-3-5-3c-2.7,0-4.3,1.5-4.3,3.6c0,2.7,2.8,3.4,5.7,4C436.8,123.5,441,124.3,441,129.2z"/>
				<path class="st8" d="M446.2,102.6h4v4.5h-4V102.6z M446.4,136.2V112h3.6v24.3H446.4z"/>
				<path class="st8" d="M478.6,138.8c0,5.2-4.8,8.1-11.6,8.1c-7,0-11.5-3-11.5-7.7c0-2.4,1.1-4,2.9-4.8c-1.4-1-2.2-2.6-2.2-4.2
					c0-1.9,1.1-3.9,3.3-4.8c-1.1-1.4-1.7-3.2-1.7-5.3c0-5,3.6-8.5,9-8.5c2.1,0,4,0.5,5.4,1.5c2.2-0.2,3.7-1.9,3.7-4.2h3.6
					c0,3.3-1.8,5.8-4.9,6.8c0.7,1.2,1.1,2.8,1.1,4.5c0,5.1-3.6,8.5-8.9,8.5c-1.8,0-3.5-0.4-4.8-1.2c-1.3,0.4-2,1.6-2,2.8
					c0,1.3,0.9,2.5,2.6,2.5h8.5C476.1,132.7,478.6,135.1,478.6,138.8z M475,138.8c0-1.6-0.9-2.5-3.9-2.5H462c-2.4,0-2.9,1.4-2.9,2.6
					c0,3,2.6,4.5,7.8,4.5C472,143.4,475,141.9,475,138.8z M461.3,120.1c0,3.1,2,5.1,5.4,5.1s5.4-2,5.4-5.1c0-3-2-5.1-5.4-5.1
					S461.3,117,461.3,120.1z"/>
				<path class="st8" d="M503.1,120v16.2h-3.6V120c0-2.9-2.1-4.9-5.5-4.9c-4.5,0-7.1,2.7-7.1,6.6v14.5h-3.6V112h3.6v2.7
					c1.6-2.3,3.9-3.2,7.4-3.2C499.9,111.5,503.1,115.2,503.1,120z"/>
				<path class="st8" d="M526.9,129.2c0,4.9-4.1,7.3-8.7,7.3c-4.2,0-9.6-1.9-9.6-8c0-0.3,0-0.7,0-1.1h3.6c0,0.3,0,0.4,0,0.5
					c0,3.8,3,5,6,5c3.2,0,5-1.3,5-3.5c0-2.4-2.3-3-5.2-3.6c-3.8-0.9-8.4-1.9-8.4-7c0-4.7,3.7-7.4,8.2-7.4c3.2,0,6.3,1.4,7.9,4.5
					l-3.1,2c-0.9-2-3-3-5-3c-2.7,0-4.3,1.5-4.3,3.6c0,2.7,2.8,3.4,5.7,4C522.7,123.5,526.9,124.3,526.9,129.2z"/>
				<path class="st8" d="M530.5,131.8h4.2v4.4h-4.2V131.8z"/>
			</g>
		</g>
	</g>
</g>
<g id="landing:hover" class="st9">
</g>
<g id="works_window" class="st9">
</g>
<g id="project_window" class="st9">
</g>
<g id="project_2" class="st9">
</g>
</svg>
